<svg width="57" height="58" viewBox="0 0 57 58" fill="none" xmlns="http://www.w3.org/2000/svg">
<path d="M24.3242 48L19.3133 38.4219L10 33.2685L13.5937 29.6247L20.933 30.926L26.0958 25.6164L10.0506 18.589L14.3023 14.1123L33.7893 17.6521L40.0657 11.1973C40.8418 10.3991 41.8035 10 42.9508 10C44.098 10 45.0597 10.3991 45.8358 11.1973C46.6119 11.9954 47 12.9755 47 14.1373C47 15.2992 46.6119 16.2799 45.8358 17.0795L39.5089 23.5863L42.9508 43.5753L38.6484 48L31.7647 31.4986L26.6019 36.8082L27.9179 44.3041L24.3242 48Z" fill="black"/>
</svg>
