<svg width="62" height="63" viewBox="0 0 62 63" fill="none" xmlns="http://www.w3.org/2000/svg">
<path d="M49.9651 10.3958C48.4719 10.1377 46.9597 10.0052 45.4443 10C40.2742 9.99577 35.212 11.4783 30.861 14.2708C26.4988 11.515 21.4373 10.0688 16.2776 10.1042C14.7623 10.1094 13.25 10.2418 11.7568 10.5C11.2677 10.5843 10.8247 10.8405 10.5077 11.2225C10.1907 11.6044 10.0204 12.087 10.0276 12.5833V37.5833C10.0232 37.8895 10.0862 38.1928 10.2123 38.4718C10.3384 38.7507 10.5244 38.9985 10.7572 39.1974C10.9899 39.3963 11.2636 39.5415 11.5588 39.6226C11.854 39.7037 12.1635 39.7188 12.4651 39.6667C15.4506 39.1498 18.5093 39.2355 21.4611 39.9189C24.4129 40.6023 27.1981 41.8695 29.6526 43.6458L29.9026 43.7917H30.1318C30.3626 43.8891 30.6105 43.9393 30.861 43.9393C31.1115 43.9393 31.3594 43.8891 31.5901 43.7917H31.8193L32.0693 43.6458C34.5067 41.8298 37.2839 40.5215 40.2363 39.7987C43.1887 39.0758 46.2561 38.953 49.2568 39.4375C49.5585 39.4896 49.868 39.4745 50.1632 39.3934C50.4584 39.3123 50.7321 39.1671 50.9648 38.9682C51.1975 38.7693 51.3835 38.5216 51.5096 38.2426C51.6357 37.9636 51.6988 37.6603 51.6943 37.3542V12.3542C51.6726 11.8795 51.4893 11.4265 51.1748 11.0703C50.8603 10.7141 50.4335 10.4761 49.9651 10.3958ZM28.7776 38.0833C24.9223 36.058 20.6326 34.9998 16.2776 35H14.1943V14.1667C14.8882 14.1281 15.5837 14.1281 16.2776 14.1667C20.7222 14.1618 25.0698 15.466 28.7776 17.9167V38.0833ZM47.5276 35.0833H45.4443C41.0894 35.0832 36.7996 36.1413 32.9443 38.1667V17.9167C36.6522 15.466 40.9998 14.1618 45.4443 14.1667C46.1382 14.1281 46.8337 14.1281 47.5276 14.1667V35.0833ZM49.9651 43.7292C48.4719 43.471 46.9597 43.3386 45.4443 43.3333C40.2742 43.3291 35.212 44.8116 30.861 47.6042C26.51 44.8116 21.4477 43.3291 16.2776 43.3333C14.7623 43.3386 13.25 43.471 11.7568 43.7292C11.4856 43.7722 11.2256 43.8684 10.9917 44.0123C10.7579 44.1562 10.5547 44.3449 10.394 44.5675C10.2333 44.7902 10.1182 45.0424 10.0554 45.3097C9.99248 45.577 9.98306 45.8541 10.0276 46.125C10.1335 46.666 10.4495 47.143 10.9064 47.4515C11.3632 47.76 11.9238 47.8748 12.4651 47.7708C15.4506 47.2539 18.5093 47.3397 21.4611 48.0231C24.4129 48.7065 27.1981 49.9737 29.6526 51.75C30.0055 52.0012 30.4278 52.1362 30.861 52.1362C31.2941 52.1362 31.7165 52.0012 32.0693 51.75C34.5238 49.9737 37.309 48.7065 40.2608 48.0231C43.2126 47.3397 46.2714 47.2539 49.2568 47.7708C49.7982 47.8748 50.3587 47.76 50.8156 47.4515C51.2725 47.143 51.5884 46.666 51.6943 46.125C51.7389 45.8541 51.7295 45.577 51.6666 45.3097C51.6037 45.0424 51.4886 44.7902 51.3279 44.5675C51.1672 44.3449 50.9641 44.1562 50.7302 44.0123C50.4963 43.8684 50.2363 43.7722 49.9651 43.7292Z" fill="black"/>
</svg>
