<svg width="45" height="45" viewBox="0 0 45 45" fill="none" xmlns="http://www.w3.org/2000/svg">
<path d="M44.3383 31.875V33.75H10.5883V31.875L14.3383 28.125V16.875C14.3383 11.0625 18.1445 5.94375 23.7133 4.29375V3.75C23.7133 2.75544 24.1083 1.80161 24.8116 1.09835C25.5149 0.395088 26.4687 0 27.4633 0C28.4578 0 29.4116 0.395088 30.1149 1.09835C30.8182 1.80161 31.2133 2.75544 31.2133 3.75V4.29375C36.782 5.94375 40.5883 11.0625 40.5883 16.875V28.125L44.3383 31.875ZM31.2133 35.625C31.2133 36.6196 30.8182 37.5734 30.1149 38.2766C29.4116 38.9799 28.4578 39.375 27.4633 39.375C26.4687 39.375 25.5149 38.9799 24.8116 38.2766C24.1083 37.5734 23.7133 36.6196 23.7133 35.625" fill="black"/>
</svg>
