<svg width="30" height="29" viewBox="0 0 30 29" fill="none" xmlns="http://www.w3.org/2000/svg">
<path fill-rule="evenodd" clip-rule="evenodd" d="M15 28.1368C16.9698 28.1368 18.9204 27.7747 20.7403 27.0711C22.5601 26.3675 24.2137 25.3363 25.6066 24.0363C26.9995 22.7363 28.1044 21.1929 28.8582 19.4943C29.612 17.7958 30 15.9753 30 14.1368C30 12.2983 29.612 10.4778 28.8582 8.77921C28.1044 7.08065 26.9995 5.5373 25.6066 4.23728C24.2137 2.93726 22.5601 1.90603 20.7403 1.20247C18.9204 0.4989 16.9698 0.13678 15 0.13678C11.0218 0.13678 7.20644 1.61178 4.3934 4.23728C1.58035 6.86279 0 10.4237 0 14.1368C0 17.8498 1.58035 21.4108 4.3934 24.0363C7.20644 26.6618 11.0218 28.1368 15 28.1368ZM14.6133 19.799L22.9467 10.4657L20.3867 8.47456L13.22 16.4997L9.51167 13.037L7.155 15.2366L12.155 19.9032L13.445 21.1072L14.6133 19.799Z" fill="#4B65A2"/>
</svg>
