<svg width="30" height="29" viewBox="0 0 30 29" fill="none" xmlns="http://www.w3.org/2000/svg">
<path fill-rule="evenodd" clip-rule="evenodd" d="M15 28.8873C16.9698 28.8873 18.9204 28.5252 20.7403 27.8216C22.5601 27.1181 24.2137 26.0868 25.6066 24.7868C26.9995 23.4868 28.1044 21.9435 28.8582 20.2449C29.612 18.5463 30 16.7258 30 14.8873C30 13.0488 29.612 11.2283 28.8582 9.52976C28.1044 7.8312 26.9995 6.28785 25.6066 4.98783C24.2137 3.68781 22.5601 2.65658 20.7403 1.95302C18.9204 1.24945 16.9698 0.887329 15 0.887329C11.0218 0.887329 7.20644 2.36232 4.3934 4.98783C1.58035 7.61334 0 11.1743 0 14.8873C0 18.6004 1.58035 22.1613 4.3934 24.7868C7.20644 27.4123 11.0218 28.8873 15 28.8873ZM14.6133 20.5496L22.9467 11.2162L20.3867 9.22511L13.22 17.2502L9.51167 13.7876L7.155 15.9871L12.155 20.6538L13.445 21.8578L14.6133 20.5496Z" fill="#4B65A2"/>
</svg>
