<svg width="30" height="29" viewBox="0 0 30 29" fill="none" xmlns="http://www.w3.org/2000/svg">
<path fill-rule="evenodd" clip-rule="evenodd" d="M15 28.6387C16.9698 28.6387 18.9204 28.2766 20.7403 27.573C22.5601 26.8694 24.2137 25.8382 25.6066 24.5382C26.9995 23.2381 28.1044 21.6948 28.8582 19.9962C29.612 18.2977 30 16.4772 30 14.6387C30 12.8002 29.612 10.9797 28.8582 9.2811C28.1044 7.58255 26.9995 6.0392 25.6066 4.73918C24.2137 3.43916 22.5601 2.40792 20.7403 1.70436C18.9204 1.00079 16.9698 0.638672 15 0.638672C11.0218 0.638672 7.20644 2.11367 4.3934 4.73918C1.58035 7.36469 0 10.9256 0 14.6387C0 18.3517 1.58035 21.9127 4.3934 24.5382C7.20644 27.1637 11.0218 28.6387 15 28.6387ZM14.6133 20.3009L22.9467 10.9676L20.3867 8.97645L13.22 17.0016L9.51167 13.5389L7.155 15.7384L12.155 20.4051L13.445 21.6091L14.6133 20.3009Z" fill="#4B65A2"/>
</svg>
