<svg width="30" height="29" viewBox="0 0 30 29" fill="none" xmlns="http://www.w3.org/2000/svg">
<path fill-rule="evenodd" clip-rule="evenodd" d="M15 28.8881C16.9698 28.8881 18.9204 28.5259 20.7403 27.8224C22.5601 27.1188 24.2137 26.0876 25.6066 24.7876C26.9995 23.4875 28.1044 21.9442 28.8582 20.2456C29.612 18.5471 30 16.7266 30 14.8881C30 13.0496 29.612 11.2291 28.8582 9.53049C28.1044 7.83194 26.9995 6.28859 25.6066 4.98857C24.2137 3.68855 22.5601 2.65731 20.7403 1.95375C18.9204 1.25018 16.9698 0.888061 15 0.888062C11.0218 0.888062 7.20644 2.36306 4.3934 4.98857C1.58035 7.61408 0 11.175 0 14.8881C0 18.6011 1.58035 22.162 4.3934 24.7876C7.20644 27.4131 11.0218 28.8881 15 28.8881ZM14.6133 20.5503L22.9467 11.217L20.3867 9.22584L13.22 17.2509L9.51167 13.7883L7.155 15.9878L12.155 20.6545L13.445 21.8585L14.6133 20.5503Z" fill="#4B65A2"/>
</svg>
