<svg width="30" height="29" viewBox="0 0 30 29" fill="none" xmlns="http://www.w3.org/2000/svg">
<path fill-rule="evenodd" clip-rule="evenodd" d="M15 28.6379C16.9698 28.6379 18.9204 28.2758 20.7403 27.5723C22.5601 26.8687 24.2137 25.8375 25.6066 24.5374C26.9995 23.2374 28.1044 21.6941 28.8582 19.9955C29.612 18.2969 30 16.4764 30 14.6379C30 12.7994 29.612 10.9789 28.8582 9.28037C28.1044 7.58181 26.9995 6.03846 25.6066 4.73844C24.2137 3.43842 22.5601 2.40719 20.7403 1.70363C18.9204 1.00006 16.9698 0.637939 15 0.637939C11.0218 0.63794 7.20644 2.11294 4.3934 4.73844C1.58035 7.36395 0 10.9249 0 14.6379C0 18.351 1.58035 21.9119 4.3934 24.5374C7.20644 27.1629 11.0218 28.6379 15 28.6379ZM14.6133 20.3002L22.9467 10.9668L20.3867 8.97572L13.22 17.0008L9.51167 13.5382L7.155 15.7377L12.155 20.4044L13.445 21.6084L14.6133 20.3002Z" fill="#4B65A2"/>
</svg>
