<svg width="30" height="29" viewBox="0 0 30 29" fill="none" xmlns="http://www.w3.org/2000/svg">
<path fill-rule="evenodd" clip-rule="evenodd" d="M15 28.8866C16.9698 28.8866 18.9204 28.5245 20.7403 27.8209C22.5601 27.1173 24.2137 26.0861 25.6066 24.7861C26.9995 23.4861 28.1044 21.9427 28.8582 20.2442C29.612 18.5456 30 16.7251 30 14.8866C30 13.0481 29.612 11.2276 28.8582 9.52903C28.1044 7.83047 26.9995 6.28712 25.6066 4.9871C24.2137 3.68708 22.5601 2.65585 20.7403 1.95228C18.9204 1.24872 16.9698 0.886597 15 0.886597C11.0218 0.886597 7.20644 2.36159 4.3934 4.9871C1.58035 7.61261 0 11.1736 0 14.8866C0 18.5996 1.58035 22.1606 4.3934 24.7861C7.20644 27.4116 11.0218 28.8866 15 28.8866ZM14.6133 20.5488L22.9467 11.2155L20.3867 9.22437L13.22 17.2495L9.51167 13.7868L7.155 15.9864L12.155 20.653L13.445 21.857L14.6133 20.5488Z" fill="#4B65A2"/>
</svg>
