<svg width="30" height="29" viewBox="0 0 30 29" fill="none" xmlns="http://www.w3.org/2000/svg">
<path fill-rule="evenodd" clip-rule="evenodd" d="M15 28.3884C16.9698 28.3884 18.9204 28.0263 20.7403 27.3227C22.5601 26.6192 24.2137 25.5879 25.6066 24.2879C26.9995 22.9879 28.1044 21.4446 28.8582 19.746C29.612 18.0474 30 16.2269 30 14.3884C30 12.5499 29.612 10.7294 28.8582 9.03086C28.1044 7.3323 26.9995 5.78895 25.6066 4.48893C24.2137 3.18891 22.5601 2.15768 20.7403 1.45411C18.9204 0.750548 16.9698 0.388428 15 0.388428C11.0218 0.388428 7.20644 1.86342 4.3934 4.48893C1.58035 7.11444 0 10.6754 0 14.3884C0 18.1015 1.58035 21.6624 4.3934 24.2879C7.20644 26.9134 11.0218 28.3884 15 28.3884ZM14.6133 20.0507L22.9467 10.7173L20.3867 8.7262L13.22 16.7513L9.51167 13.2887L7.155 15.4882L12.155 20.1549L13.445 21.3589L14.6133 20.0507Z" fill="#4B65A2"/>
</svg>
