<svg width="30" height="29" viewBox="0 0 30 29" fill="none" xmlns="http://www.w3.org/2000/svg">
<path fill-rule="evenodd" clip-rule="evenodd" d="M15 28.6372C16.9698 28.6372 18.9204 28.2751 20.7403 27.5715C22.5601 26.868 24.2137 25.8367 25.6066 24.5367C26.9995 23.2367 28.1044 21.6933 28.8582 19.9948C29.612 18.2962 30 16.4757 30 14.6372C30 12.7987 29.612 10.9782 28.8582 9.27964C28.1044 7.58108 26.9995 6.03773 25.6066 4.73771C24.2137 3.43769 22.5601 2.40646 20.7403 1.70289C18.9204 0.999328 16.9698 0.637207 15 0.637207C11.0218 0.637207 7.20644 2.1122 4.3934 4.73771C1.58035 7.36322 0 10.9242 0 14.6372C0 18.3502 1.58035 21.9112 4.3934 24.5367C7.20644 27.1622 11.0218 28.6372 15 28.6372ZM14.6133 20.2994L22.9467 10.9661L20.3867 8.97498L13.22 17.0001L9.51167 13.5374L7.155 15.737L12.155 20.4037L13.445 21.6077L14.6133 20.2994Z" fill="#4B65A2"/>
</svg>
