<svg width="30" height="29" viewBox="0 0 30 29" fill="none" xmlns="http://www.w3.org/2000/svg">
<path fill-rule="evenodd" clip-rule="evenodd" d="M15 28.3877C16.9698 28.3877 18.9204 28.0256 20.7403 27.322C22.5601 26.6184 24.2137 25.5872 25.6066 24.2872C26.9995 22.9872 28.1044 21.4438 28.8582 19.7453C29.612 18.0467 30 16.2262 30 14.3877C30 12.5492 29.612 10.7287 28.8582 9.03013C28.1044 7.33157 26.9995 5.78822 25.6066 4.4882C24.2137 3.18818 22.5601 2.15695 20.7403 1.45338C18.9204 0.749816 16.9698 0.387695 15 0.387695C11.0218 0.387695 7.20644 1.86269 4.3934 4.4882C1.58035 7.11371 0 10.6747 0 14.3877C0 18.1007 1.58035 21.6617 4.3934 24.2872C7.20644 26.9127 11.0218 28.3877 15 28.3877ZM14.6133 20.0499L22.9467 10.7166L20.3867 8.72547L13.22 16.7506L9.51167 13.2879L7.155 15.4875L12.155 20.1541L13.445 21.3581L14.6133 20.0499Z" fill="#4B65A2"/>
</svg>
