<svg width="30" height="29" viewBox="0 0 30 29" fill="none" xmlns="http://www.w3.org/2000/svg">
<path fill-rule="evenodd" clip-rule="evenodd" d="M15 28.1375C16.9698 28.1375 18.9204 27.7753 20.7403 27.0718C22.5601 26.3682 24.2137 25.337 25.6066 24.0369C26.9995 22.7369 28.1044 21.1936 28.8582 19.495C29.612 17.7965 30 15.976 30 14.1375C30 12.2989 29.612 10.4784 28.8582 8.77988C28.1044 7.08133 26.9995 5.53798 25.6066 4.23796C24.2137 2.93794 22.5601 1.9067 20.7403 1.20314C18.9204 0.499572 16.9698 0.137451 15 0.137451C11.0218 0.137451 7.20644 1.61245 4.3934 4.23796C1.58035 6.86347 0 10.4244 0 14.1375C0 17.8505 1.58035 21.4114 4.3934 24.0369C7.20644 26.6625 11.0218 28.1375 15 28.1375ZM14.6133 19.7997L22.9467 10.4663L20.3867 8.47523L13.22 16.5003L9.51167 13.0377L7.155 15.2372L12.155 19.9039L13.445 21.1079L14.6133 19.7997Z" fill="#4B65A2"/>
</svg>
