<svg width="30" height="29" viewBox="0 0 30 29" fill="none" xmlns="http://www.w3.org/2000/svg">
<path fill-rule="evenodd" clip-rule="evenodd" d="M15 28.1383C16.9698 28.1383 18.9204 27.7762 20.7403 27.0726C22.5601 26.3691 24.2137 25.3378 25.6066 24.0378C26.9995 22.7378 28.1044 21.1944 28.8582 19.4959C29.612 17.7973 30 15.9768 30 14.1383C30 12.2998 29.612 10.4793 28.8582 8.78074C28.1044 7.08218 26.9995 5.53883 25.6066 4.23881C24.2137 2.93879 22.5601 1.90756 20.7403 1.20399C18.9204 0.500426 16.9698 0.138306 15 0.138306C11.0218 0.138306 7.20644 1.6133 4.3934 4.23881C1.58035 6.86432 0 10.4253 0 14.1383C0 17.8513 1.58035 21.4123 4.3934 24.0378C7.20644 26.6633 11.0218 28.1383 15 28.1383ZM14.6133 19.8005L22.9467 10.4672L20.3867 8.47608L13.22 16.5012L9.51167 13.0385L7.155 15.2381L12.155 19.9048L13.445 21.1088L14.6133 19.8005Z" fill="#4B65A2"/>
</svg>
