<svg width="31" height="31" viewBox="0 0 31 31" fill="none" xmlns="http://www.w3.org/2000/svg">
<path d="M26.4573 4.54272C23.5901 1.55155 19.6225 -0.0602692 15.5 0.00172391C11.3775 -0.0602692 7.4254 1.55155 4.55822 4.54272C1.55155 7.4099 -0.0602692 11.3775 0.00172391 15.5C-0.0602692 19.6225 1.55155 23.5746 4.54272 26.4418C7.4099 29.4484 11.3775 31.0603 15.5 30.9983C19.6225 31.0603 23.5746 29.4484 26.4418 26.4573C29.4484 23.5901 31.0603 19.6225 30.9983 15.5C31.0603 11.3775 29.4484 7.4099 26.4573 4.54272ZM23.2491 15.5V24.799H17.8247V17.0498H13.1753V24.799H7.75086V15.5H4.65121L15.5 4.65121L27.1237 15.5H23.2491Z" fill="#364A79"/>
</svg>
